<?xml version="1.0" encoding="UTF-8"?>
<svg xmlns="http://www.w3.org/2000/svg" viewBox="0 0 595.28 212.25">
  <defs>
    <style>
      .cls-1 {
        letter-spacing: .03em;
      }

      .cls-2 {
        letter-spacing: .29em;
      }

      .cls-3 {
        font-size: 85.76px;
        stroke: #e63623;
        stroke-miterlimit: 10;
        stroke-width: 3px;
      }

      .cls-3, .cls-4, .cls-5 {
        fill: #e63523;
      }

      .cls-3, .cls-5 {
        font-family: MyriadConceptItalic-BoldItalic, 'Myriad Variable Concept';
        font-variation-settings: 'wght' 700, 'wdth' 100;
      }

      .cls-6 {
        letter-spacing: .12em;
      }

      .cls-7 {
        fill: none;
      }

      .cls-8 {
        letter-spacing: .3em;
      }

      .cls-9 {
        letter-spacing: .3em;
      }

      .cls-10 {
        letter-spacing: .1em;
      }

      .cls-5 {
        font-size: 44px;
      }

      .cls-11 {
        letter-spacing: .31em;
      }
    </style>
  </defs>
  <g id="Capa_2" data-name="Capa 2">
    <path class="cls-4" d="M72.89,104.84v13.75c24-13.43,47.99-26.85,71.97-40.27,.05-8.15-.58-14.35-.92-17.14-6.48,4.12-12.96,8.24-19.44,12.35-.84,2.72-1.68,5.45-2.53,8.17-10.04,5.55-20.09,11.1-30.13,16.64,.08,2.82-1.81,5.7-5.65,5.7-7.56,0-7.54-11.07,0-11.07,1.61,0,2.88,.5,3.8,1.3,9.5-5.27,19.01-10.54,28.51-15.82,.91-2.87,1.82-5.74,2.73-8.61,6.3-3.51,12.61-7.02,18.92-10.54-11.01-2.91-22-5.83-33-8.74-16.39,9.18-32.77,18.37-49.15,27.56-.1,9.71-.21,19.43-.31,29.14,5.48,2.11,4.66,11.33-2.43,11.33s-7.95-9.7-2-11.48c.1-10.44,.2-20.88,.31-31.32,16.27-8.83,32.54-17.66,48.82-26.49-6.14-1.63-12.28-3.25-18.41-4.87l-60.8,14.35c-.92,9.2-5.68,65.62,35.15,98.79,6.19,5.03,14.66,10.52,25.96,14.85,11.18-3.48,19.5-8.34,25.55-12.86,27.54-20.58,34-53.65,34.91-76.08-25.5,14.3-51,28.59-76.5,42.88,.02-7.12,.03-14.23,.05-21.34-5.18-1.8-4.48-10.4,2.07-10.4s7.18,8.07,2.53,10.21Zm42.12,7.57c3.83-2.23,7.66-4.46,11.48-6.69-.56-3.37,1.5-7.2,6.15-7.2,8.32,0,8.31,12.2,0,12.2-1.53,0-2.79-.41-3.75-1.09-3.5,2.29-7,4.58-10.51,6.87-.67,4.95-1.33,9.9-2,14.85-3.99,2.43-7.97,4.84-11.96,7.27,.49,3.35-1.59,7.09-6.2,7.09-8.37,0-8.35-12.27,0-12.27,1.78,0,3.18,.55,4.2,1.43h0c3.56-2.31,7.12-4.61,10.67-6.91,.63-5.19,1.27-10.37,1.9-15.56Zm-35.79,13.36c1.78,0,3.16,.58,4.13,1.49,4.84-2.98,9.67-5.96,14.5-8.94,0,0,0,0,0,.01-.78-3.33,1.18-7.33,5.85-7.33,8.03,0,8.02,11.76,0,11.76-1.19,0-2.2-.26-3.04-.7,0,0,0,0,0,.01-5.18,3.23-10.37,6.46-15.55,9.7-.1,2.81-2.07,5.55-5.91,5.55-7.89,0-7.88-11.56,0-11.56Zm-9.82-35.44c-7.6,0-7.59-11.14,0-11.14,1.45,0,2.62,.41,3.52,1.06,0,0,0,0,0-.01,10.95-5.83,21.9-11.68,32.85-17.52-.31-3.13,1.68-6.51,5.97-6.51,8.01,0,8,11.74,0,11.74-1.7,0-3.04-.53-4.02-1.38t0,0c-10.88,5.81-21.77,11.62-32.66,17.41,.38,3.02-1.5,6.34-5.65,6.34Z"/>
    <path class="cls-7" d="M138.06,78.48c0,1.57-.04,3.22-.11,4.94,.04-1.65,.07-3.29,.11-4.94Z"/>
    <path class="cls-7" d="M19.09,104.84c-.67,.33-1.47,.52-2.39,.52-.72,0-1.38-.12-1.95-.33-4.89-1.8-4.23-10.4,1.95-10.4s6.78,8.07,2.39,10.21Z"/>
    <path class="cls-7" d="M43.69,124.9c-9.32,0-10.16-13.12-2.56-15.53,.77-.25,1.62-.38,2.56-.38,1.17,0,2.21,.21,3.11,.58,7,2.85,5.95,15.33-3.11,15.33Z"/>
  </g>
  <g id="Capa_4" data-name="Capa 4">
    <path class="cls-4" d="M554.37,116.5v5.61H225.4c-1.19-4.56-2.39-9.12-3.58-13.68-3.23,17.85-6.46,35.69-9.69,53.54h-7.56c-3.09-28.8-6.17-57.61-9.26-86.41-4.33,21.62-8.67,43.24-13,64.86h-5.46c-3.19-10.16-6.38-20.32-9.57-30.48-2.02,4.05-4.03,8.11-6.05,12.16h-31.31v-5.61h25.8c3.33-6.37,6.66-12.74,10-19.11,2.1,0,4.2,0,6.3,0,2.12,8.09,4.24,16.18,6.35,24.27l14.21-73.06,.33-1.69c2.46-.06,4.92-.13,7.39-.19l.21,2.11,8.54,84.28,8.36-42.98c2.66-.03,5.33-.06,7.99-.08,2.19,8.82,4.37,17.65,6.56,26.47h322.43Z"/>
  </g>
  <g id="Capa_5" data-name="Capa 5">
    <text class="cls-3" transform="translate(259.06 103.15)"><tspan class="cls-8" x="0" y="0">T</tspan><tspan class="cls-2" x="71.35" y="0">S</tspan><tspan class="cls-11" x="140.22" y="0">C</tspan><tspan class="cls-9" x="216.72" y="0">M</tspan></text>
    <text class="cls-5" transform="translate(254.35 163.76)"><tspan class="cls-10" x="0" y="0">C</tspan><tspan class="cls-6" x="30.05" y="0">ONSU</tspan><tspan class="cls-1" x="163.46" y="0">L</tspan><tspan class="cls-6" x="186.03" y="0">TING</tspan></text>
  </g>
</svg>